<svg width="154" height="27" viewBox="0 0 154 27" fill="none" xmlns="http://www.w3.org/2000/svg">
<path d="M0.826416 25.8076L5.33857 14.8052H8.16692L12.6716 25.8076H9.52552L8.74995 23.8572H4.6663L3.91303 25.8076H0.826416ZM5.5307 21.5026H7.90868L6.72692 18.3939L5.5307 21.5026Z" fill="white"/>
<path d="M16.7231 25.8075V14.8814H21.7183C23.2554 14.8814 24.402 15.2749 25.159 16.061C25.7825 16.7099 26.0945 17.5787 26.0945 18.6667C26.0945 19.466 25.9036 20.1447 25.5226 20.7036C25.1416 21.2617 24.6111 21.6888 23.9322 21.9852L26.4577 25.8075H23.0736L20.9394 22.4857H19.6543V25.8075H16.7231ZM19.6547 20.1311H21.5898C22.0868 20.1311 22.4736 20.0147 22.7492 19.7819C23.0248 19.5496 23.1628 19.2277 23.1628 18.8168C23.1628 18.4015 23.0236 18.0848 22.7455 17.8669C22.4674 17.6499 22.0774 17.5404 21.5749 17.5404H19.6548V20.1311L19.6547 20.1311Z" fill="white"/>
<path d="M30.0273 17.5407V14.8818H39.3169V17.5407H36.134V25.8079H33.2028V17.5407H30.0273Z" fill="white"/>
<path d="M43.62 25.8075V14.8814H48.6148C50.1519 14.8814 51.2994 15.2749 52.0563 16.061C52.6803 16.7099 52.9918 17.5787 52.9918 18.6667C52.9918 19.466 52.8009 20.1447 52.4195 20.7036C52.0394 21.2617 51.5089 21.6888 50.8291 21.9852L53.3546 25.8075H49.9709L47.8367 22.4857H46.5517V25.8075H43.62H43.62ZM46.5517 20.1311H48.4867C48.9838 20.1311 49.3705 20.0147 49.6461 19.7819C49.9217 19.5496 50.0598 19.2277 50.0598 18.8168C50.0598 18.4015 49.9205 18.0848 49.6424 17.8669C49.3644 17.6499 48.9743 17.5404 48.4718 17.5404H46.5517V20.1311L46.5517 20.1311Z" fill="white"/>
<path d="M57.154 20.3485C57.154 19.5756 57.3002 18.8398 57.5932 18.1415C57.8861 17.4423 58.2837 16.8387 58.7857 16.3305C59.2877 15.8219 59.8935 15.4182 60.6025 15.1185C61.3116 14.8183 62.0673 14.6683 62.8698 14.6683C63.6722 14.6683 64.4255 14.8171 65.1296 15.1146C65.8337 15.4117 66.4353 15.8129 66.9328 16.319C67.4311 16.8246 67.824 17.427 68.1108 18.1261C68.3976 18.8244 68.5418 19.5654 68.5418 20.3485C68.5418 21.1201 68.3955 21.856 68.1038 22.5568C67.8121 23.2577 67.4146 23.8609 66.9138 24.3691C66.413 24.8769 65.8097 25.2797 65.1019 25.5794C64.3953 25.8791 63.6408 26.0288 62.8408 26.0288C61.7723 26.0288 60.8025 25.776 59.9311 25.2708C59.0596 24.7664 58.3791 24.0809 57.889 23.2146C57.399 22.3496 57.1539 21.3942 57.1539 20.3485L57.154 20.3485ZM60.1596 20.3485C60.1596 21.1573 60.4157 21.8513 60.9277 22.4311C61.4397 23.0113 62.0871 23.3008 62.8697 23.3008C63.6623 23.3008 64.3097 23.0139 64.8118 22.4422C65.3138 21.8701 65.565 21.1722 65.565 20.3481C65.565 19.5394 65.3089 18.8453 64.7969 18.2655C64.285 17.6858 63.6325 17.3959 62.84 17.3959C62.0574 17.3959 61.4149 17.6823 60.9124 18.2544C60.4108 18.8266 60.1596 19.5245 60.1596 20.3485Z" fill="white"/>
<path d="M72.7411 20.3485C72.7411 19.5607 72.8816 18.8172 73.1634 18.1185C73.4452 17.4193 73.8303 16.8169 74.3179 16.3113C74.8055 15.8053 75.3947 15.4054 76.0877 15.1108C76.7806 14.8154 77.5215 14.6683 78.3095 14.6683C80.1949 14.6683 81.677 15.4297 82.7551 16.9516L80.606 18.6757C79.9511 17.823 79.1735 17.3963 78.2723 17.3963C77.5388 17.3963 76.9343 17.6802 76.4592 18.2485C75.984 18.8159 75.7464 19.5164 75.7464 20.349C75.7464 21.1863 75.984 21.888 76.4592 22.4533C76.9343 23.0199 77.5384 23.3016 78.2723 23.3016C78.7892 23.3016 79.2284 23.19 79.5904 22.9666C79.9524 22.7432 80.3106 22.4077 80.6647 21.9609L82.8729 23.5954C82.5134 24.0959 82.1332 24.5175 81.732 24.8577C81.3308 25.1979 80.8263 25.4789 80.2181 25.6997C79.6102 25.9192 78.9317 26.0296 78.1834 26.0296C77.1839 26.0296 76.2695 25.7871 75.4398 25.3019C74.6101 24.818 73.9531 24.1398 73.468 23.2688C72.9837 22.3978 72.7412 21.4245 72.7412 20.3485L72.7411 20.3485Z" fill="white"/>
<path d="M87.1672 25.8075V14.8814H90.0989V19.316L93.747 14.8814H97.2254L93.2152 19.5824L97.358 25.8075H93.8354L91.1769 21.7541L90.0989 22.9806V25.8075H87.1672H87.1672Z" fill="white"/>
<path d="M101.233 25.8075V14.8814H109.748V17.4568H104.135V19.11H109.216V21.5026H104.135V23.2321H109.822V25.8075H101.233H101.233Z" fill="white"/>
<path d="M113.754 17.5407V14.8818H123.044V17.5407H119.861V25.8079H116.93V17.5407H113.754Z" fill="white"/>
<path d="M126.549 24.1844L128.188 22.173C129.248 23.0466 130.394 23.4835 131.627 23.4835C132.015 23.4835 132.311 23.4162 132.518 23.2815C132.724 23.1467 132.828 22.9528 132.828 22.6987C132.828 22.4651 132.706 22.2745 132.463 22.1274C132.219 21.9799 131.749 21.8226 131.052 21.6551C130.694 21.5685 130.383 21.4888 130.118 21.415C129.854 21.3413 129.573 21.2488 129.277 21.1371C128.98 21.0254 128.727 20.9086 128.521 20.7866C128.313 20.6647 128.11 20.5176 127.913 20.3445C127.715 20.1719 127.557 19.9851 127.438 19.7844C127.32 19.5836 127.225 19.3487 127.152 19.0796C127.081 18.8106 127.045 18.5156 127.045 18.1959C127.045 17.1646 127.417 16.3239 128.16 15.6738C128.903 15.0237 129.902 14.6984 131.156 14.6984C132.894 14.6984 134.348 15.181 135.515 16.1461L134.041 18.2871C133.053 17.5709 132.066 17.2128 131.082 17.2128C130.738 17.2128 130.475 17.2801 130.293 17.4148C130.112 17.5496 130.021 17.7261 130.021 17.9443C130.021 18.1984 130.143 18.3949 130.386 18.5348C130.63 18.6746 131.117 18.8306 131.848 19.0033C132.497 19.1508 133.047 19.3119 133.501 19.4871C133.955 19.6624 134.364 19.8819 134.727 20.1462C135.09 20.4106 135.36 20.7316 135.537 21.1101C135.715 21.4887 135.804 21.9317 135.804 22.4398C135.804 23.5423 135.415 24.4107 134.636 25.0455C133.856 25.6803 132.818 25.9979 131.517 25.9979C130.561 25.9979 129.653 25.8444 128.796 25.537C127.937 25.2297 127.189 24.779 126.549 24.1843L126.549 24.1844Z" fill="white"/>
<path d="M150.744 3.29962L138.153 6.14145L147.989 16.2899L150.744 3.29962Z" fill="#FF0000"/>
<path d="M153.171 0.794434L138.841 4.0289L150.037 15.58L153.171 0.794434Z" fill="white"/>
</svg>
