<svg width="93" height="83" viewBox="0 0 93 83" fill="none" xmlns="http://www.w3.org/2000/svg">
<g clip-path="url(#clip0)">
<path d="M85.6242 6.80189C85.3833 6.55534 85.0503 6.41954 84.7055 6.42643C83.7124 6.43769 60.2273 6.83631 48.4816 18.5795C46.996 20.0776 45.6907 21.7446 44.5924 23.5469C44.2501 23.1651 43.8978 22.7903 43.5336 22.423C31.7842 10.6773 8.29027 10.2837 7.29843 10.2674C6.95238 10.2599 6.61884 10.3957 6.37667 10.6429C6.13199 10.8869 5.9962 11.2198 5.99995 11.5652C6.01184 12.5583 6.41046 36.0522 18.1555 47.7979C26.5477 56.1901 39.5581 57.4686 46.7169 57.4686C48.8032 57.4686 50.3783 57.361 51.2024 57.2884L56.6247 62.7107C57.1279 63.1963 57.927 63.1894 58.4213 62.695C58.9157 62.2007 58.9226 61.4009 58.437 60.8984L53.0147 55.4761C53.0597 54.953 53.1186 54.137 53.1567 53.0794C59.5177 52.2146 67.8949 49.9087 73.8416 43.9482C85.5898 32.1988 85.9871 8.71612 85.9996 7.72052C86.0034 7.37635 85.8682 7.04531 85.6242 6.80189ZM40.3247 42.7793L41.1807 33.4153C41.2452 32.71 40.7258 32.0861 40.0206 32.0217C39.3159 31.9572 38.6921 32.4766 38.6276 33.1818L37.9662 40.4214L34.8905 37.3457L35.7491 27.9761C35.8135 27.2683 35.2916 26.6425 34.5839 26.5781C33.8761 26.5143 33.2504 27.0362 33.1859 27.7439L32.5251 34.9834L28.5389 30.9992L29.395 21.6333C29.4594 20.9286 28.9394 20.3048 28.2348 20.2409C27.5296 20.1771 26.9063 20.6965 26.8425 21.4017L26.1798 28.64L19.0566 21.5169C18.735 21.1833 18.2588 21.05 17.8101 21.1671C17.3621 21.2847 17.0123 21.6345 16.8952 22.0826C16.7776 22.5306 16.9115 23.0075 17.2444 23.3291L24.3676 30.4522L17.1293 31.1143C16.4215 31.1462 15.8734 31.7451 15.9046 32.4528C15.9359 33.1612 16.5354 33.7094 17.2432 33.6775H17.3614L26.7267 32.8214L30.7116 36.8076L23.4771 37.4533C22.7693 37.4853 22.2212 38.0847 22.2531 38.7925C22.285 39.5002 22.8845 40.0484 23.5922 40.0165H23.7086L33.0758 39.1604L36.1514 42.2361L28.9119 42.8975C28.2041 42.9295 27.6566 43.5289 27.6879 44.2367C27.7198 44.9444 28.3199 45.4926 29.0277 45.4607H29.1453L38.51 44.6046L48.7626 54.8573C42.789 55.0506 28.4945 54.5262 19.964 45.9951C10.5024 36.5191 8.88475 18.0157 8.61567 12.8812C13.7482 13.1491 32.2429 14.7604 41.7177 24.2365C50.2475 32.7663 50.7707 47.0614 50.5798 53.0344L40.3247 42.7793ZM72.0331 42.1385C66.6984 47.4851 59.1022 49.6383 53.1943 50.4869C53.1736 47.4075 52.907 44.3349 52.397 41.2981H52.4096C52.7494 41.2981 53.0754 41.1629 53.3157 40.9226L53.4915 40.7468L62.8562 41.6028H62.9738C63.6816 41.6347 64.281 41.0866 64.313 40.3788C64.3449 39.6711 63.7967 39.0716 63.089 39.0397L55.8494 38.3782L58.9251 35.3026L68.3016 36.1718H68.418C69.1258 36.2037 69.7252 35.6555 69.7572 34.9478C69.7891 34.24 69.2409 33.6405 68.5331 33.6086L61.2936 32.9472L65.2779 28.9617L74.6438 29.8177H74.7621C75.4698 29.849 76.0687 29.3008 76.1006 28.5931C76.1319 27.8853 75.5837 27.2858 74.876 27.2546L67.6377 26.5919L74.7602 19.4687C75.0937 19.1471 75.227 18.6709 75.11 18.2222C74.993 17.7741 74.6425 17.4243 74.1945 17.3073C73.7464 17.1897 73.2702 17.3236 72.9486 17.6565L65.8254 24.7796L65.1628 17.5414C65.0989 16.8361 64.475 16.3167 63.7704 16.3812C63.0652 16.445 62.5458 17.0683 62.6096 17.7735L63.4657 27.1388L59.4801 31.1237L58.8174 23.8992C58.7536 23.1914 58.1278 22.6695 57.4201 22.7334C56.7124 22.7978 56.1905 23.4236 56.2543 24.1313L57.1103 33.4985L54.0347 36.5741L53.3732 29.3346C53.3094 28.6294 52.6855 28.11 51.9803 28.1744C51.2757 28.2389 50.7563 28.8628 50.8207 29.5674L51.5216 37.2312C50.501 33.0999 48.73 29.1901 46.2977 25.697C47.3853 23.7571 48.7269 21.9712 50.2888 20.388C59.753 10.9245 78.2501 9.31123 83.3858 9.04215C83.1173 14.1747 81.5016 32.6625 72.0331 42.136V42.1385Z" fill="#333333"/>
</g>
<path d="M69.3882 3.22535C69.1738 2.42515 69.6486 1.60265 70.4488 1.38823C71.249 1.17382 72.0716 1.64869 72.286 2.44889C72.5004 3.24909 72.0255 4.0716 71.2253 4.28601C70.4251 4.50042 69.6026 4.02555 69.3882 3.22535Z" fill="#54C5B0"/>
<path d="M89.3882 2.22535C89.1738 1.42515 89.6486 0.602645 90.4488 0.388233C91.249 0.17382 92.0716 0.648694 92.286 1.44889C92.5004 2.24909 92.0255 3.0716 91.2253 3.28601C90.4251 3.50042 89.6026 3.02555 89.3882 2.22535Z" fill="#54C5B0"/>
<path d="M19 4.50008C19 5.3285 18.3284 6.00008 17.5 6.00008C16.6716 6.00008 16 5.3285 16 4.50008C16 3.67165 16.6716 3.00008 17.5 3.00008C18.3284 3.00008 19 3.67165 19 4.50008Z" fill="#54C5B0"/>
<path d="M35 8.50008C35 9.3285 34.3284 10.0001 33.5 10.0001C32.6716 10.0001 32 9.3285 32 8.50008C32 7.67165 32.6716 7.00008 33.5 7.00008C34.3284 7.00008 35 7.67165 35 8.50008Z" fill="#54C5B0"/>
<path d="M53 7.50008C53 8.3285 52.3284 9.00008 51.5 9.00008C50.6716 9.00008 50 8.3285 50 7.50008C50 6.67165 50.6716 6.00008 51.5 6.00008C52.3284 6.00008 53 6.67165 53 7.50008Z" fill="#54C5B0"/>
<path d="M3 5.50008C3 6.3285 2.32843 7.00008 1.5 7.00008C0.671573 7.00008 0 6.3285 0 5.50008C0 4.67165 0.671573 4.00008 1.5 4.00008C2.32843 4.00008 3 4.67165 3 5.50008Z" fill="#54C5B0"/>
<defs>
<clipPath id="clip0">
<rect width="80" height="80" fill="white" transform="translate(6 3.00008)"/>
</clipPath>
</defs>
</svg>
