<svg width="62" height="67" viewBox="0 0 62 67" fill="none" xmlns="http://www.w3.org/2000/svg">
<path d="M53.1429 23.8589C53.1429 11.5697 43.2339 1.66074 31 1.66074C18.7661 1.66074 8.85714 11.5697 8.85714 23.8036C8.85714 23.8036 8.85714 23.8036 8.85714 23.8589C3.93036 24.1357 0 28.2322 0 33.2143V34.3214C0 39.525 4.20714 43.7322 9.41071 43.7322H9.90893L13.8393 49.9875C16.6071 54.4161 21.3125 57.0179 26.5161 57.0179H27.2911C27.7893 58.9 29.5054 60.3393 31.5536 60.3393C33.9893 60.3393 35.9821 58.3464 35.9821 55.9107C35.9821 53.475 33.9893 51.4822 31.5536 51.4822C29.5054 51.4822 27.7893 52.9214 27.2911 54.8036H26.5161C22.0875 54.8036 18.0464 52.5339 15.7214 48.7697L12.5107 43.7322H13.2857C14.5036 43.7322 15.5 42.7357 15.5 41.5179V26.0179C15.5 24.8 14.5036 23.8036 13.2857 23.8036H11.0714C11.0714 12.7875 19.9839 3.87502 31 3.87502C42.0161 3.87502 50.9286 12.7875 50.9286 23.8036H48.7143C47.4964 23.8036 46.5 24.8 46.5 26.0179V41.5179C46.5 42.7357 47.4964 43.7322 48.7143 43.7322H52.5893C57.7929 43.7322 62 39.525 62 34.3214V33.2143C62 28.2322 58.0696 24.1357 53.1429 23.8589ZM31.5536 53.6964C32.7714 53.6964 33.7679 54.6929 33.7679 55.9107C33.7679 57.1286 32.7714 58.125 31.5536 58.125C30.3357 58.125 29.3393 57.1286 29.3393 55.9107C29.3393 54.6929 30.3357 53.6964 31.5536 53.6964ZM13.2857 26.0179V41.5179H9.41071C5.425 41.5179 2.21429 38.3072 2.21429 34.3214V33.2143C2.21429 29.2286 5.425 26.0179 9.41071 26.0179H13.2857ZM59.7857 34.3214C59.7857 38.3072 56.575 41.5179 52.5893 41.5179H48.7143V26.0179H52.5893C56.575 26.0179 59.7857 29.2286 59.7857 33.2143V34.3214Z" fill="#333333"/>
<path d="M40.1893 10.0196C40.0786 9.96429 39.9125 9.85357 39.7464 9.74286C39.5804 9.63214 39.4143 9.52143 39.3036 9.46607C38.8054 9.13393 38.0857 9.3 37.8089 9.85357C37.5321 10.4071 37.6429 11.0161 38.1964 11.3482C38.3071 11.4036 38.4732 11.5143 38.6393 11.625C38.8054 11.7357 38.9714 11.8464 39.1375 11.9018C39.3036 12.0125 39.525 12.0679 39.6911 12.0679C40.0786 12.0679 40.4107 11.9018 40.6322 11.5143C40.9089 11.0161 40.7429 10.3518 40.1893 10.0196Z" fill="#333333"/>
<path d="M31 7.19647C26.2947 7.19647 21.8661 9.24469 18.8215 12.7875C18.434 13.2304 18.4893 13.95 18.9322 14.3375C19.1536 14.5036 19.375 14.6143 19.6518 14.6143C19.9839 14.6143 20.2607 14.5036 20.4822 14.2268C23.1393 11.1822 26.9589 9.41076 31 9.41076C31.9964 9.41076 32.9929 9.52147 33.9893 9.7429C34.5982 9.85362 35.1518 9.46612 35.3179 8.91254C35.4839 8.35897 35.0411 7.75004 34.4875 7.58397C33.325 7.30719 32.1625 7.19647 31 7.19647Z" fill="#54C5B0"/>
<path d="M33 46.5C33 47.3284 32.3284 48 31.5 48C30.6716 48 30 47.3284 30 46.5C30 45.6716 30.6716 45 31.5 45C32.3284 45 33 45.6716 33 46.5Z" fill="#54C5B0"/>
<path d="M41 50.5C41 51.3284 40.3284 52 39.5 52C38.6716 52 38 51.3284 38 50.5C38 49.6716 38.6716 49 39.5 49C40.3284 49 41 49.6716 41 50.5Z" fill="#54C5B0"/>
<path d="M41 60.5C41 61.3284 40.3284 62 39.5 62C38.6716 62 38 61.3284 38 60.5C38 59.6716 38.6716 59 39.5 59C40.3284 59 41 59.6716 41 60.5Z" fill="#54C5B0"/>
<path d="M33 65.5C33 66.3284 32.3284 67 31.5 67C30.6716 67 30 66.3284 30 65.5C30 64.6716 30.6716 64 31.5 64C32.3284 64 33 64.6716 33 65.5Z" fill="#54C5B0"/>
</svg>
