<svg width="63" height="63" viewBox="0 0 63 63" fill="none" xmlns="http://www.w3.org/2000/svg">
<g clip-path="url(#clip0)">
<path d="M20.6687 43.1248C23.2632 46.783 25.8536 50.0548 27.5704 52.1621C27.8203 52.4688 28.0545 52.7533 28.2812 53.0273H23.1006C22.5207 53.0273 22.0506 53.4973 22.0506 54.0773C22.0506 54.6572 22.5207 55.1272 23.1006 55.1272H39.9005C40.4804 55.1272 40.9504 54.6572 40.9504 54.0773C40.9504 53.4973 40.4804 53.0273 39.9005 53.0273H34.7198C34.9466 52.7533 35.1808 52.4687 35.4318 52.1621C37.1474 50.0621 39.7368 46.783 42.3324 43.1248C44.9076 39.5681 47.2256 35.8322 49.2687 31.9455C51.4128 27.7349 52.5007 24.2395 52.5007 21.5557C52.5078 15.9791 50.2949 10.629 46.3507 6.68655C46.0873 6.41338 45.697 6.30362 45.3298 6.39948C44.9627 6.49533 44.6757 6.78179 44.5794 7.14884C44.483 7.51589 44.5922 7.90631 44.8649 8.17013C48.4151 11.7193 50.4069 16.5355 50.4006 21.5556C50.4006 23.9055 49.3905 27.0807 47.3976 30.992C45.4007 34.7886 43.1353 38.4379 40.6188 41.9121C38.059 45.523 35.5001 48.758 33.8043 50.837C33.2405 51.528 32.7333 52.139 32.3007 52.6557C32.0988 52.8863 31.8072 53.0184 31.5007 53.0184C31.1941 53.0184 30.9025 52.8862 30.7006 52.6557C30.268 52.1391 29.7609 51.528 29.197 50.837C27.5012 48.7591 24.9423 45.524 22.3825 41.9121C19.866 38.4379 17.6006 34.7886 15.6037 30.992C13.6087 27.0807 12.6007 23.9055 12.6007 21.5556C12.6001 13.9502 17.1484 7.0819 24.1508 4.11399C28.8559 2.14105 34.1563 2.14105 38.8613 4.11399C39.2069 4.26042 39.6042 4.21157 39.9038 3.98553C40.2034 3.75962 40.3597 3.39097 40.3138 3.0185C40.2679 2.64604 40.0268 2.32636 39.6813 2.17994C28.9888 -2.32999 16.6646 2.67976 12.1513 13.3708C11.0568 15.9605 10.4955 18.7442 10.5008 21.5556C10.5008 24.2394 11.5886 27.7349 13.7327 31.9506C15.7756 35.8356 18.0937 39.5698 20.6687 43.1248Z" fill="#333333"/>
<path d="M31.5004 12.0773C32.0803 12.0773 32.5504 11.6072 32.5504 11.0273C32.5504 10.4474 32.0803 9.97734 31.5004 9.97734C26.4912 9.97722 22.1793 13.5158 21.202 18.4288C20.2246 23.3419 22.854 28.2611 27.4819 30.1782C32.1099 32.0952 37.4475 30.476 40.2306 26.311C43.0137 22.146 42.467 16.595 38.925 13.0528C38.6613 12.7799 38.271 12.6704 37.9038 12.7665C37.5368 12.8626 37.2501 13.1493 37.154 13.5163C37.0579 13.8835 37.1674 14.2738 37.4403 14.5375C40.2741 17.3711 40.7115 21.8118 38.4852 25.1439C36.2589 28.476 31.9888 29.7715 28.2864 28.2381C24.5841 26.7046 22.4804 22.7693 23.262 18.8388C24.0436 14.9083 27.493 12.0774 31.5004 12.0773Z" fill="#54C5B0"/>
<path d="M62.6047 57.827L56.1472 46.2769C55.5634 45.2507 54.4708 44.62 53.2902 44.6274H45.8068C45.2269 44.6274 44.7568 45.0974 44.7568 45.6773C44.7568 46.2573 45.2269 46.7273 45.8068 46.7273H53.2902C53.7105 46.7192 54.1027 46.9383 54.316 47.3006L60.7715 58.8507C60.9473 59.1511 60.9436 59.5239 60.762 59.8209C60.5475 60.1753 60.1597 60.3875 59.7456 60.3774H3.25542C2.84174 60.3873 2.45438 60.1749 2.24004 59.8209C2.05842 59.5239 2.05485 59.1511 2.23056 58.8507L8.686 47.3006C8.89899 46.9384 9.29077 46.7193 9.71073 46.7273H17.1941C17.774 46.7273 18.2441 46.2573 18.2441 45.6773C18.2441 45.0974 17.774 44.6274 17.1941 44.6274H9.71086C8.5296 44.6196 7.4362 45.2504 6.85173 46.2769L0.395186 57.827C-0.143146 58.7779 -0.130718 59.9444 0.427794 60.8836C1.01621 61.8838 2.09521 62.492 3.25542 62.4776H59.7456C60.9055 62.4916 61.9841 61.8835 62.5723 60.8836C63.1308 59.9443 63.1432 58.7779 62.6047 57.827Z" fill="#333333"/>
<path d="M51.4506 49.8773H47.2507C47.0433 49.8777 46.8407 49.939 46.6679 50.0538L43.5179 52.1539C43.0354 52.4757 42.9052 53.1278 43.227 53.6102C43.5489 54.0927 44.2009 54.2229 44.6834 53.9011L47.5657 51.9775H51.4506C52.0306 51.9775 52.5006 51.5074 52.5006 50.9276C52.5006 50.3474 52.0306 49.8773 51.4506 49.8773Z" fill="#333333"/>
<path d="M45.1506 57.2273C45.1506 57.8073 45.6207 58.2773 46.2006 58.2773H54.6007C55.1806 58.2773 55.6506 57.8073 55.6506 57.2273C55.6506 56.6474 55.1806 56.1774 54.6007 56.1774H46.2006C45.6207 56.1774 45.1506 56.6474 45.1506 57.2273Z" fill="#54C5B0"/>
<path d="M18.9004 54.0773C19.3633 54.0779 19.772 53.7752 19.9065 53.3323C20.041 52.8893 19.8694 52.4105 19.4843 52.1537L16.3343 50.0537C16.1613 49.9387 15.9581 49.8773 15.7504 49.8772H11.5505C10.9705 49.8772 10.5005 50.3474 10.5005 50.9272C10.5005 51.5071 10.9707 51.9771 11.5505 51.9771H15.4354L18.3209 53.9007C18.4925 54.0154 18.6942 54.0768 18.9004 54.0773Z" fill="#54C5B0"/>
<path d="M8.40043 56.1774C7.8205 56.1774 7.35046 56.6474 7.35046 57.2273C7.35046 57.8073 7.8205 58.2773 8.40043 58.2773H16.8005C17.3804 58.2773 17.8505 57.8073 17.8505 57.2273C17.8505 56.6474 17.3804 56.1774 16.8005 56.1774H8.40043Z" fill="#333333"/>
</g>
<path d="M33.3882 12.2254C33.1738 11.4252 33.6486 10.6026 34.4488 10.3882C35.249 10.1738 36.0716 10.6487 36.286 11.4489C36.5004 12.2491 36.0255 13.0716 35.2253 13.286C34.4251 13.5004 33.6026 13.0255 33.3882 12.2254Z" fill="#333333"/>
<path d="M44 5.5C44 6.32843 43.3284 7 42.5 7C41.6716 7 41 6.32843 41 5.5C41 4.67157 41.6716 4 42.5 4C43.3284 4 44 4.67157 44 5.5Z" fill="#54C5B0"/>
<defs>
<clipPath id="clip0">
<rect width="63" height="63" fill="white"/>
</clipPath>
</defs>
</svg>
